<?xml version="1.0" encoding="UTF-8" standalone="no"?>
<!DOCTYPE svg PUBLIC "-//W3C//DTD SVG 1.1//EN" "http://www.w3.org/Graphics/SVG/1.1/DTD/svg11.dtd">
<svg xmlns="http://www.w3.org/2000/svg" version="1.1" viewBox="0.00 0.00 1080.00 1080.00">
<path stroke="#e79e42" stroke-width="2.00" fill="none" stroke-linecap="butt" vector-effect="non-scaling-stroke" d="
  M 913.02 248.49
  Q 912.71 248.94 913.10 249.45
  C 954.96 303.40 985.14 365.56 1000.52 431.98
  C 1034.42 578.46 997.53 733.99 898.82 847.92
  Q 805.84 955.23 669.14 995.08
  Q 659.49 997.90 649.80 1000.17
  C 501.05 1034.98 345.85 997.47 230.21 897.25
  Q 227.24 894.68 216.45 884.54
  Q 209.65 878.15 202.43 872.10"
/>
<path fill="#ffb767" d="
  M 913.02 248.49
  Q 912.71 248.94 913.10 249.45
  C 954.96 303.40 985.14 365.56 1000.52 431.98
  C 1034.42 578.46 997.53 733.99 898.82 847.92
  Q 805.84 955.23 669.14 995.08
  Q 659.49 997.90 649.80 1000.17
  C 501.05 1034.98 345.85 997.47 230.21 897.25
  Q 227.24 894.68 216.45 884.54
  Q 209.65 878.15 202.43 872.10
  Q 187.31 855.31 176.57 842.44
  C 105.36 757.13 67.09 650.00 67.04 538.56
  A 0.93 0.93 0.0 0 1 67.98 537.63
  L 538.82 540.10
  Q 540.04 540.11 539.73 538.92
  L 417.84 83.99
  Q 417.69 83.46 418.19 83.20
  Q 419.43 82.56 421.50 82.04
  Q 523.74 56.44 626.17 74.91
  C 721.00 92.00 807.60 139.06 875.62 206.91
  Q 890.77 222.02 913.02 248.49
  Z"
/>
<path fill="#cf851c" d="
  M 913.02 248.49
  C 1004.40 353.65 1044.90 492.51 1024.06 630.26
  C 1005.01 756.21 935.12 869.34 831.26 943.83
  C 720.90 1022.98 581.70 1050.03 449.49 1019.75
  C 363.21 999.99 284.86 955.60 222.16 893.33
  Q 211.97 883.20 202.43 872.10
  Q 209.65 878.15 216.45 884.54
  Q 227.24 894.68 230.21 897.25
  C 345.85 997.47 501.05 1034.98 649.80 1000.17
  Q 659.49 997.90 669.14 995.08
  Q 805.84 955.23 898.82 847.92
  C 997.53 733.99 1034.42 578.46 1000.52 431.98
  C 985.14 365.56 954.96 303.40 913.10 249.45
  Q 912.71 248.94 913.02 248.49
  Z"
/>
</svg>
