<?xml version="1.0" encoding="UTF-8" standalone="no"?>
<!DOCTYPE svg PUBLIC "-//W3C//DTD SVG 1.1//EN" "http://www.w3.org/Graphics/SVG/1.1/DTD/svg11.dtd">
<svg xmlns="http://www.w3.org/2000/svg" version="1.1" viewBox="0.00 0.00 1080.00 1080.00">
<path stroke="#276f76" stroke-width="2.00" fill="none" stroke-linecap="butt" vector-effect="non-scaling-stroke" d="
  M 1012.74 572.30
  Q 1011.90 572.04 1011.88 572.39
  Q 1000.45 721.83 907.70 837.33
  C 887.67 862.27 864.21 885.60 840.29 905.28
  C 739.64 988.07 610.52 1025.04 480.89 1009.32
  C 381.29 997.25 289.20 952.59 216.02 884.45"
/>
<path fill="#255c5f" d="
  M 1012.74 572.30
  Q 1011.90 572.04 1011.88 572.39
  Q 1000.45 721.83 907.70 837.33
  C 887.67 862.27 864.21 885.60 840.29 905.28
  C 739.64 988.07 610.52 1025.04 480.89 1009.32
  C 381.29 997.25 289.20 952.59 216.02 884.45
  L 205.81 874.82
  A 0.63 0.62 -48.0 0 1 205.77 873.95
  Q 207.60 871.83 209.71 869.71
  Q 363.11 716.49 516.38 563.13
  C 526.36 553.15 541.08 539.44 553.08 527.43
  Q 713.62 366.80 874.31 206.20
  A 0.42 0.42 0.0 0 1 874.91 206.21
  C 894.18 225.66 912.16 246.84 927.79 269.39
  Q 1011.28 389.84 1013.01 538.25
  Q 1013.16 550.30 1012.74 572.30
  Z"
/>
<path fill="#29828c" d="
  M 1012.74 572.30
  C 1007.51 783.80 862.07 965.70 657.49 1018.70
  C 593.81 1035.19 523.67 1038.27 457.65 1026.25
  Q 321.25 1001.42 218.99 907.48
  Q 212.38 901.41 206.22 895.39
  A 0.85 0.83 -45.5 0 1 206.22 894.19
  L 216.02 884.45
  C 289.20 952.59 381.29 997.25 480.89 1009.32
  C 610.52 1025.04 739.64 988.07 840.29 905.28
  C 864.21 885.60 887.67 862.27 907.70 837.33
  Q 1000.45 721.83 1011.88 572.39
  Q 1011.90 572.04 1012.74 572.30
  Z"
/>
</svg>
